<svg width="116" height="25" viewBox="0 0 116 25" fill="none" xmlns="http://www.w3.org/2000/svg">
<g clip-path="url(#clip0_6507_6796)">
<path fill-rule="evenodd" clip-rule="evenodd" d="M9.6 1C6.94903 1 4.8 3.14903 4.8 5.8C2.14903 5.8 0 7.94903 0 10.6V25H14.4C17.051 25 19.2 22.851 19.2 20.2H24V10.6C24 5.29807 19.7019 1 14.4 1H9.6ZM19.2 20.2V10.6C19.2 7.94903 17.051 5.8 14.4 5.8H4.8V15.4C4.8 18.051 6.94903 20.2 9.6 20.2H19.2Z" fill="#FCFCFC"/>
<path d="M7.2 9.16C7.2 8.62981 7.62981 8.2 8.16 8.2H9.24C9.77019 8.2 10.2 8.62981 10.2 9.16V10.24C10.2 10.7702 9.77019 11.2 9.24 11.2H8.16C7.62981 11.2 7.2 10.7702 7.2 10.24V9.16Z" fill="#FCFCFC"/>
<path d="M12.6 9.16C12.6 8.62981 13.0298 8.2 13.56 8.2H14.64C15.1702 8.2 15.6 8.62981 15.6 9.16V10.24C15.6 10.7702 15.1702 11.2 14.64 11.2H13.56C13.0298 11.2 12.6 10.7702 12.6 10.24V9.16Z" fill="#FCFCFC"/>
</g>
<path d="M107.4 20.2V9.78736C107.4 8.47696 107.728 7.4848 108.383 6.81088C109.057 6.13696 110.096 5.8 111.5 5.8H115.2V8.8H112.005C111.518 8.8 111.172 8.91232 110.966 9.13696C110.76 9.34288 110.657 9.67048 110.657 10.1198L110.685 20.2H107.4Z" fill="#FCFCFC"/>
<path d="M98.0412 20.3685C96.5249 20.3685 95.2051 20.069 94.0819 19.4699C92.9587 18.8522 92.0976 17.991 91.4986 16.8866C90.8995 15.7821 90.6 14.4998 90.6 13.0396C90.6 11.542 90.8902 10.241 91.4705 9.13648C92.0695 8.032 92.9119 7.18024 93.9977 6.5812C95.0834 5.96344 96.3377 5.65456 97.7604 5.65456C99.1644 5.65456 100.391 5.93536 101.439 6.49696C102.506 7.05856 103.33 7.86352 103.91 8.91184C104.509 9.94144 104.808 11.177 104.808 12.6184C104.808 12.7869 104.808 12.9647 104.808 13.1519C104.808 13.3391 104.799 13.5357 104.78 13.7416H94.0257C94.0257 13.7603 94.0257 13.7884 94.0257 13.8258C94.0257 13.8446 94.0257 13.8726 94.0257 13.9101C94.0257 14.6776 94.1849 15.3515 94.5031 15.9318C94.8401 16.4934 95.2987 16.9427 95.879 17.2797C96.4594 17.5979 97.1239 17.757 97.8727 17.757C98.79 17.757 99.5481 17.5511 100.147 17.1393C100.765 16.7087 101.177 16.1284 101.383 15.3983H104.668C104.5 16.3156 104.125 17.158 103.545 17.9255C102.965 18.6743 102.206 19.2734 101.27 19.7226C100.334 20.1532 99.258 20.3685 98.0412 20.3685ZM94.11 11.3829H101.467C101.355 10.372 100.971 9.59512 100.316 9.05224C99.6605 8.50936 98.8274 8.23792 97.8166 8.23792C97.1988 8.23792 96.6278 8.36896 96.1037 8.63104C95.5795 8.8744 95.1396 9.23008 94.7839 9.69808C94.4282 10.1661 94.2036 10.7277 94.11 11.3829Z" fill="#FCFCFC"/>
<path d="M76.8 20.2V1H80.1134V12.5342L86.3911 5.8H90.21L84.8309 11.5794L90.503 20.2H86.628L82.5283 14.0505L80.1134 16.5777V20.2H76.8Z" fill="#FCFCFC"/>
<path d="M65.7552 20.3685C64.7256 20.3685 63.799 20.2094 62.9753 19.8911C62.1703 19.5542 61.5432 19.0674 61.0939 18.431C60.6446 17.7945 60.42 17.0363 60.42 16.1565C60.42 14.6589 60.9535 13.5076 62.0205 12.7026C63.0876 11.8977 64.6507 11.4952 66.7099 11.4952H70.1076V10.6809C70.1076 9.87592 69.8455 9.26752 69.3214 8.85568C68.7972 8.42512 68.0577 8.20984 67.103 8.20984C66.2232 8.20984 65.5212 8.38768 64.997 8.74336C64.4729 9.09904 64.1453 9.58576 64.0142 10.2035H60.8131C60.9067 9.26752 61.2249 8.46256 61.7678 7.78864C62.3294 7.11472 63.0782 6.59056 64.0142 6.21616C64.9502 5.84176 66.0266 5.65456 67.2434 5.65456C69.1903 5.65456 70.6973 6.10384 71.7643 7.0024C72.8501 7.88224 73.3929 9.17392 73.3929 10.8774V16.4373C73.3929 16.8117 73.4585 17.0644 73.5895 17.1954C73.7393 17.3078 73.9733 17.3639 74.2915 17.3639H74.8531V20.2H73.1402C72.1855 20.2 71.5022 19.9941 71.0904 19.5822C70.6973 19.1704 70.5007 18.6462 70.5007 18.0098V17.9255C70.1825 18.4122 69.8081 18.8428 69.3775 19.2172C68.9469 19.5729 68.4321 19.8537 67.8331 20.0596C67.2341 20.2655 66.5414 20.3685 65.7552 20.3685ZM66.2606 17.8694C67.0656 17.8694 67.7489 17.7196 68.3105 17.4201C68.8908 17.1206 69.3307 16.6994 69.6302 16.1565C69.9485 15.6136 70.1076 14.9958 70.1076 14.3032V13.8539H66.5695C65.6709 13.8539 64.9783 14.0224 64.4916 14.3594C64.0049 14.6963 63.7615 15.2111 63.7615 15.9038C63.7615 16.5028 63.9861 16.9802 64.4354 17.3358C64.8847 17.6915 65.4931 17.8694 66.2606 17.8694Z" fill="#FCFCFC"/>
<path d="M55.9303 20.2C54.5637 20.2 53.5622 19.8724 52.9257 19.2172C52.2893 18.5433 51.971 17.5418 51.971 16.2126V8.63608H49.2V5.8H51.971V1H55.2564V5.8H59.1V8.63608H55.2564V15.8195C55.2564 16.3811 55.3687 16.7742 55.5933 16.9989C55.8367 17.2235 56.2392 17.3358 56.8008 17.3358H58.8787V20.2H55.9303Z" fill="#FCFCFC"/>
<path d="M34.8 20.2V5.8H37.6922L38.0011 7.67632C38.4691 7.11472 39.0588 6.63736 39.7701 6.24424C40.5002 5.85112 41.4362 5.65456 42.5781 5.65456C43.6452 5.65456 44.6093 5.86048 45.4704 6.27232C46.3502 6.68416 47.0522 7.36744 47.5764 8.32216C48.1005 9.27688 48.3626 10.5686 48.3626 12.1972V20.2H45.0492V12.4499C45.0492 11.1208 44.7684 10.1193 44.2068 9.44536C43.6639 8.77144 42.8589 8.43448 41.7919 8.43448C40.9869 8.43448 40.3037 8.60296 39.7421 8.93992C39.1992 9.25816 38.7873 9.72616 38.5065 10.3439C38.2445 10.9617 38.1134 11.7198 38.1134 12.6184V20.2H34.8Z" fill="#FCFCFC"/>
<path d="M28.8 20.2V5.8H32.1134V20.2H28.8Z" fill="#FCFCFC"/>
<path d="M28.6356 1.12C28.6356 0.589807 29.0654 0.16 29.5956 0.16H31.2756C31.8058 0.16 32.2356 0.589807 32.2356 1.12V2.8C32.2356 3.33019 31.8058 3.76 31.2756 3.76H29.5956C29.0654 3.76 28.6356 3.33019 28.6356 2.8V1.12Z" fill="#FCFCFC"/>
<defs>
<clipPath id="clip0_6507_6796">
<rect width="24" height="24" fill="white" transform="translate(0 1)"/>
</clipPath>
</defs>
</svg>
